<svg width="388" height="144" viewBox="0 0 388 144" fill="none" xmlns="http://www.w3.org/2000/svg">
<g clip-path="url(#clip0_23_234)">
<path d="M334.067 68.8722H316.503V142.562H334.067V68.8722Z" fill="#2A813E"/>
<path d="M266.615 138.541H267.439V86.0842H269.498V85.7281H271.442V86.0842H281.099V88.1732H283.217V138.541H284.747V141.691H283.217V141.826H281.099H269.559H267.439V141.691H266.615V138.541Z" fill="#2A813E"/>
<path d="M160.087 130.895H144.887V130.62V130.349V128.708V128.433V128.16V126.523V126.246V125.976V124.334V124.062V123.789V122.15V121.875V121.604V119.963V119.689V119.418V117.776V117.502V117.23V115.589V115.317V115.041V113.402V113.129V112.858V111.217V110.942V110.669V109.028V108.758V108.483V106.842V106.57V106.298V104.657V104.383V104.11V102.469V102.198V101.924V100.286V100.01V99.7367V98.0976V97.8247V97.5498V95.9107V95.6371V95.3635V93.7238V93.4502V93.1766V91.5376V91.2653V90.9917V89.3507V89.0771V88.8035V87.1657V86.8908V86.6185V84.9795V84.7052V84.431V82.7919V82.5183V82.2447V80.6057V80.3327V80.0591V78.4188V78.1452V77.8722V76.2325V75.9589V75.6866V74.0462V73.7733V73.4997V71.86V71.5857V71.3134V69.6731V69.3995V69.1272V67.4868V67.2132V66.9396V65.3012V65.027V64.754V63.1143V62.8407V62.5671V60.4871V57.0925V54.7749V54.583H144.877H143.795H143.784H142.801H142.791H142.266V53.186H142.256H142.171H142.16V54.583H141.81V51.4388H141.799H141.713H141.703V54.583H140.645V52.7496H140.547H140.536V54.583H139.516H139.506H139.043V54.339H139.033H138.771V54.0963L138.76 52.5996H138.445V52.017H138.435H130.937H130.926V52.5996H130.614L130.604 54.0963V54.339H130.338H130.328V54.583H129.868H129.858H127.283V53.0856H127.185H127.174V54.583H126.585H126.575H125.586H125.576H124.495H124.485V54.7749V60.4871V62.5671V62.8407V63.1143V64.754V65.027V65.3012V66.9396V67.2132V67.4868V69.1272V69.3995V69.6731V71.3134V71.5857V71.86V73.4997V73.7733V74.0462V75.6866V75.9589V76.2325V77.8722V78.1452V78.4188V80.0591V80.3327V80.6063V82.2447V82.5183V82.7919V84.431V84.7052V84.9795V86.6185V86.8908V87.1657V88.8035V89.0771V89.3507V90.9917V91.2653V91.5376V93.1766V93.4502V93.7238V95.3635V95.6371V95.9107V97.5498V97.8253V98.0976V99.7367V100.01V100.286V101.924V102.198V102.469V104.11V104.383V104.657V106.298V106.57V106.843V108.483V108.758V109.028V110.669V110.942V111.217V112.858V113.129V113.402V115.041V115.317V115.589V117.23V117.502V117.776V119.418V119.689V119.963V121.604V121.875V122.15V123.789V124.062V124.334V125.976V126.246V126.523V128.16V128.433V128.708V130.349V130.62V130.895H109.288H109.278V141.558H109.288H110.815H110.825H111.067H111.077H111.401H111.411H113.012H113.022H113.347H113.357H114.961H114.971H115.294H115.305H116.907H116.917H117.243H117.253H118.855H118.865H119.187H119.198H119.44H119.45H160.087H160.097V130.895H160.087Z" fill="#2A813E"/>
<path d="M90.5427 103.136H91.9855V100.805H93.3617V97.8336H94.6727V95.2991H95.8859V93.6678H97.4591V92.7066L100.606 90.6311H105.325L108.471 92.7066V93.6678H110.045V95.2991H111.258V97.8336V100.805V103.136V128.306H118.075V139.696H117.493V141.685H116.969V139.696H114.74V141.685H91.0186V139.696H90.5427V103.136Z" fill="#46474A"/>
<path d="M385.523 84.3195V82.4706H383.163C383.163 82.432 383.166 82.3934 383.166 82.3541C383.166 78.156 379.094 74.7531 374.071 74.7531C369.048 74.7531 364.976 78.156 364.976 82.3541C364.976 82.3934 364.979 82.4313 364.98 82.4706H362.619V84.3195H359.599V141.747H388.542V84.3195H385.522H385.523Z" fill="#2A813E"/>
<path d="M369.982 131.427V129.474H362.883V131.309L349.019 134.759L346.042 120.126L348.837 74.6861L339.385 70.8994L339.421 74.0945H336.287L336.323 70.8994L326.87 74.6861L329.666 120.126L325.139 142.373H334.858H335.524H340.183H343.246H344.111H350.569H371.713L369.982 131.427Z" fill="#46474A"/>
<path d="M381.644 139.508H380.749C380.363 139.861 379.784 140.085 379.137 140.085C377.974 140.085 377.031 139.362 377.031 138.47C377.031 137.578 377.973 136.855 379.137 136.855C379.796 136.855 380.385 137.088 380.771 137.453H380.989L381.645 135.827H380.713V134.753L379.731 134.909L379.302 133.811C379.302 133.811 379.037 133.395 378.819 133.313C378.6 133.232 377.495 133.313 377.495 133.313L377.477 133.342L376.966 132.952V132.912L376.782 132.646C376.782 132.646 376.793 132.411 376.575 132.196C376.405 132.029 376.242 132.245 376.178 132.35L369.931 127.574L369.844 127.682L371.275 128.785C371.195 129.298 370.483 133.158 370.483 133.158L371.018 133.065C371.018 133.065 370.983 132.989 371.018 132.82C371.053 132.652 372.588 131.072 372.588 131.072L372.795 131.195L372.226 132.023C372.226 132.023 372.157 131.962 371.915 132.023C371.673 132.084 371.915 132.468 371.915 132.468V133.879L372.347 134.876L372.084 135.854L371.928 136.141L360.022 138.02V137.553H359.142V136.407H358.597C357.852 134.483 352.124 119.342 351.597 107.406H351.908V106.763H352.43V105.843H351.843V105.2H351.062L350.123 99.1392V98.7034H350.195V98.1974H349.176V98.7034H349.248V99.1392L348.309 105.2H347.528V105.843H346.941V106.763H347.528V107.406H347.773C347.246 119.342 341.518 134.483 340.774 136.407H340.228V137.553H339.348V138.02L329.12 136.406C329.104 136.378 328.521 135.362 328.385 135.241C328.247 135.118 328.132 134.771 327.994 134.833C327.856 134.894 327.419 133.994 327.419 133.933C327.419 133.871 326.752 133.483 326.752 133.483V133.749L326.614 133.687L325.302 132.767L325.071 132.296H323.921C323.921 132.296 323.944 131.928 323.921 131.867C323.898 131.806 323.093 131.11 323.093 131.11L323.553 129.986L322.886 131.09L322.31 130.742C322.31 130.742 321.346 134.395 321.272 135.167L320.759 135.086C320.43 134.941 320.074 134.766 320.124 134.71C320.216 134.607 319.941 133.707 320.078 133.524C320.216 133.34 320.584 133.115 320.584 133.115C320.584 133.115 320.952 131.724 320.837 131.581C320.722 131.438 320.538 131.336 320.538 131.336C320.538 131.336 320.837 131.172 320.745 131.049C320.653 130.926 320.469 130.64 320.193 130.947C319.917 131.254 320.193 131.356 320.193 131.356L319.733 132.501L319.641 134.218V134.627L319.452 134.88L318.658 134.754V135.828H317.726L318.381 137.453H318.599C318.985 137.089 319.574 136.856 320.234 136.856C321.396 136.856 322.339 137.579 322.339 138.471C322.339 139.362 321.397 140.085 320.234 140.085C319.586 140.085 319.008 139.861 318.622 139.508H317.726L316.656 140.245V141.411H382.715V140.245L381.646 139.508L381.644 139.508ZM379.129 134.489L379.186 134.649L379.114 134.594L379.129 134.489ZM379.077 134.866L379.232 134.987L379.057 135.015L379.077 134.866ZM349.008 132.672C348.948 132.697 348.886 132.722 348.821 132.747C348.442 132.901 348.546 133.33 348.546 133.484C348.546 133.638 348.442 134.435 348.304 134.466C348.188 134.491 346.708 136.81 346.238 137.551H344.369V136.405H343.814C343.759 135.893 343.731 135.368 343.731 134.831C343.731 131.038 346.008 127.767 347.879 126.255C348.285 127.056 349.266 129.381 349.008 132.672ZM355.555 136.405H355V137.551H353.117C352.775 136.856 351.99 135.397 351.962 135.324C351.927 135.232 351.962 134.65 351.962 134.558C351.962 134.466 351.667 134.435 351.667 134.435L351.513 133.821C351.513 133.821 351.858 133.882 351.513 132.962C351.335 132.488 350.809 132.371 350.34 132.368C350.165 129.281 351.071 127.093 351.473 126.287C353.325 127.813 355.638 131.065 355.638 134.831C355.638 135.368 355.609 135.893 355.555 136.405ZM378.864 134.039L378.846 134.389L378.519 134.139L378.864 134.039ZM378.35 134.298L378.832 134.674L378.812 135.053L378.207 135.148L378.35 134.297V134.298ZM376.552 133.105L376.796 133.084L377.359 133.524L377.219 133.742L377.598 134.274L377.944 134.192L377.741 135.222L377.483 135.263L376.552 134.056V133.105H376.552ZM372.277 132.65L372.416 132.19L373.071 130.978L372.692 130.994L373.296 130.411C372.768 130.411 371.909 129.426 371.505 128.962L375.194 131.807L375.091 131.93L374.314 132.221C374.314 132.221 374.176 132.237 374.021 132.129C373.866 132.022 373.814 132.084 373.814 132.084L373.382 132.237L372.674 132.805L372.416 132.621L372.277 132.652V132.65ZM372.604 136.032L372.795 135.012L372.838 135.019L373.036 135.964L372.604 136.033V136.032ZM373.155 134.598L372.99 134.558L372.468 132.865L372.735 133.064L373.399 132.297H373.641L373.193 134.598H373.156L373.155 134.598ZM373.522 135.887L373.286 135.082L373.546 135.12L373.713 135.857L373.522 135.887ZM373.98 135.815L373.799 135.156L374.096 135.199L374.232 135.775L373.98 135.815ZM375.62 134.659L375.471 135.58L374.818 135.683L374.507 135.221L374.521 135.028L374.107 134.184L374.349 134.061L374.366 133.218L374.72 133.095C374.72 133.095 375.298 132.888 375.341 132.85C375.385 132.811 375.738 132.332 375.738 132.332L375.661 132.344L375.471 132.482C375.471 132.482 375.109 132.789 374.988 132.819C374.867 132.85 374.315 132.711 374.315 132.711C374.315 132.711 374.211 132.496 374.28 132.42C374.349 132.343 374.884 132.236 374.884 132.174C374.884 132.113 375.298 131.914 375.298 131.914L375.987 132.451L375.759 132.522L375.621 134.659H375.62ZM375.931 135.507L376.126 134.404L376.955 135.346L375.931 135.507Z" fill="#276034"/>
<path d="M356.692 141.26C356.514 137.964 353.456 135.339 349.694 135.339C345.933 135.339 342.876 137.965 342.698 141.26H356.692Z" fill="#46474A"/>
<path d="M267.356 124.858V121.881H263.703V68.8432H262.639V63.402H257.035V56.3186H252.519V60.026H249.866V57.8482H247.146C247.606 57.2404 247.883 56.4531 247.883 55.593C247.883 53.6681 246.497 52.1083 244.787 52.1083C243.077 52.1083 241.69 53.6688 241.69 55.593C241.69 56.4531 241.968 57.2404 242.427 57.8482H240.674V56.7956H239.972V17.3297H239.886L238.285 13.3003H237.668L236.067 17.3297H235.981V40.0916H232.982V56.7956H232.28V57.8482H232.014V121.881H228.362V124.858H229.2V126.346H228.362V129.323H229.2V130.812H228.362V133.788H229.2V135.277H228.362V138.254H229.2V139.742H228.362V142.719H267.357V139.742H266.518V138.254H267.357V135.277H266.518V133.788H267.357V130.812H266.518V129.323H267.357V126.346H266.518V124.858H267.357H267.356ZM236.973 54.5411L238.471 56.101H236.973V54.5411ZM236.973 52.2538L238.471 53.8136H236.973V52.2538ZM236.973 49.9664L238.471 51.5263H236.973V49.9664ZM236.973 47.6791L238.471 49.239H236.973V47.6791ZM236.973 45.3918L238.471 46.9516H236.973V45.3918ZM236.973 43.1045L238.471 44.6643H236.973V43.1045ZM236.973 40.8171L238.471 42.377H236.973V40.8171ZM235.981 42.377H234.699L235.981 41.0418V42.377ZM235.981 44.6643H234.699L235.981 43.3291V44.6643ZM235.981 46.9516H234.699L235.981 45.6165V46.9516ZM235.981 49.239H234.699L235.981 47.9038V49.239ZM235.981 51.5263H234.699L235.981 50.1911V51.5263ZM235.981 53.8136H234.699L235.981 52.4784V53.8136ZM235.981 56.101H234.699L235.981 54.7658V56.101ZM238.981 56.7949H237.457L237.208 56.5362H238.981V56.7949ZM238.981 56.0939L237.208 54.2488H238.981V56.0939ZM238.981 53.8065L237.208 51.9615H238.981V53.8065ZM238.981 51.5192L237.208 49.6742H238.981V51.5192ZM238.981 49.2319L237.208 47.3868H238.981V49.2319ZM238.981 46.9446L237.208 45.0995H238.981V46.9446ZM238.981 44.6572L237.208 42.8122H238.981V44.6572ZM238.981 42.3699L237.208 40.5248H238.981V42.3699ZM238.981 40.0826L237.418 38.4558H238.981V40.0826ZM236.973 18.0546L238.576 19.7232H236.973V18.0546ZM236.973 20.4507L238.471 22.0106H236.973V20.4507ZM236.973 22.738L238.471 24.2979H236.973V22.738ZM236.973 25.0253L238.471 26.5852H236.973V25.0253ZM236.973 27.2032L238.576 28.8719H236.973V27.2032ZM236.973 29.4906L238.576 31.1592H236.973V29.4906ZM236.973 31.7779L238.576 33.4466H236.973V31.7779ZM236.973 34.0652L238.576 35.7339H236.973V34.0652ZM236.973 36.3526L238.467 37.9079H236.973V36.3526ZM238.981 37.906L237.313 36.1704H238.981V37.906ZM238.981 35.6187L237.313 33.883H238.981V35.6187ZM238.981 33.3313L237.313 31.5957H238.981V33.3313ZM238.981 31.044L237.313 29.3084H238.981V31.044ZM238.981 28.7567L237.313 27.021H238.981V28.7567ZM238.981 26.5788L237.208 24.7337H238.981V26.5788ZM238.981 24.2914L237.208 22.4464H238.981V24.2914ZM238.981 22.0041L237.208 20.1591H238.981V22.0041ZM238.981 19.608L237.208 17.7629H238.981V19.608ZM237.977 14.0078L239.296 17.3271H236.658L237.977 14.0078ZM236.973 38.5292L238.471 40.089H236.973V38.5292ZM233.973 40.5248H235.961L234.183 42.3763H233.973V40.5248ZM233.973 42.8122H235.961L234.183 44.6637H233.973V42.8122ZM233.973 45.0995H235.961L234.183 46.951H233.973V45.0995ZM233.973 47.3868H235.961L234.183 49.2383H233.973V47.3868ZM233.973 49.6742H235.961L234.183 51.5257H233.973V49.6742ZM233.973 51.9615H235.961L234.183 53.813H233.973V51.9615ZM233.973 54.2488H235.961L234.183 56.1003H233.973V54.2488ZM233.973 56.5362H235.961L235.713 56.7949H233.973V56.5362Z" fill="#2A813E"/>
<path d="M316.56 53.8234H318.804V45.3803H309.774V40.4805H305.561V39.7132V39.7125H295.466V39.7132V40.4805H291.253V45.3803H282.223V53.8234H284.466V55.5944V58.4283H282.223V60.9081V141.91H284.868H286.589V142.087H286.943V141.91H288.664V142.382H295.26H296.447H296.801H297.862H298.215H299.099H299.452H300.337H300.69H301.574H301.928H302.812H303.165H304.226H304.58H305.767H312.363V141.91H312.364V142.382H313.536V141.91H314.077V142.087H314.431V141.91H316.158H318.804V60.9081V58.4283H316.56V55.5944V53.8234Z" fill="#38A852"/>
<path d="M261.557 129.197V126.368H261.319V96.2275H260.649V94.3058H252.995V95.7292H251.179V94.9296H248.47V95.7292H247.855V94.3058H240.202V95.7292H239.475V102.028H238.642V89.8586H231.38V89.2548H228.363V90.2861H217.245V91.5672H216.296V129.198H216.031V132.026H216.296V133.201H216.031V141.528H238.909V133.201H238.644V119.643H239.477V133.201H239.253V141.528H261.488V133.201H261.321V129.197H261.558H261.557ZM238.643 117.294V104.376H239.476V117.294H238.643Z" fill="#46474A"/>
<path d="M263.41 142.562C262.999 134.919 255.906 128.832 247.184 128.832C238.462 128.832 231.374 134.919 230.96 142.562H263.41Z" fill="#276034"/>
<path d="M242.249 139.602H243.073V104.077H245.131V103.836H247.075V104.077H256.732V105.492H258.85V139.602H260.379V141.735H258.85V141.826H256.732H245.192H243.073V141.735H242.249V139.602Z" fill="#276034"/>
<path d="M318.147 141.548C317.893 136.83 313.514 133.072 308.131 133.072C302.747 133.072 298.371 136.83 298.115 141.548H318.147Z" fill="#46474A"/>
<path d="M272.294 75.1052V75.0975H269.259V73.799V72.4851H269.438V72.0673H269.431V72.0595H269.251H267.609V68.5426H267.602V68.5349H267.491V62.7918H267.483V62.7841H265.887V68.5349H264.996H264.672H263.141H262.817H261.199H260.875H259.256H258.932H257.402H257.078H256.1V62.7918H256.092V62.7841H254.496V68.5349V68.9521V72.0595H252.865H252.567V72.4774H252.574V72.4851H252.865V73.7913V75.0975H249.685V75.5147H249.692V75.5224H249.823V141.907H249.831V141.915H250.454H251.113H252.873H254.523H256.1H266.033H267.609H269.259H272.302V75.5224V75.3138V75.1052H272.294Z" fill="#38A852"/>
<path d="M167.075 135.565V133.029H163.006V83.0808H158.492V75.1566H136.585V83.0808H136.138V133.029H128.167V135.565H126.531V142.432H169.491V135.565H167.075Z" fill="#46474A"/>
<path d="M210.748 44.826V40.306H190.466V44.826H186.19V142.492H212.425V44.826H210.748Z" fill="#2A813E"/>
<path d="M20.3899 93.2712H6.07833V91.5652H5.0701V93.2712H2.58573V93.9935H1.10742V143.121H18.9116V141.756H20.3899V93.2712Z" fill="#2A813E"/>
<path d="M192.866 93.1457V92.2328H173.41V140.914H176.211V141.826H195.666V93.1457H192.866Z" fill="#46474A"/>
<path d="M218.117 118.562V117.507H217.735V115.346H212.152V113.237H212.551L212.816 111.892H211.287V111.021H211.631L211.908 109.677H211.29L202.491 105.735L193.693 109.677H193.075L193.351 111.021H193.695V111.892H192.166L192.432 113.237H192.831V115.346H187.248V117.507H186.866V118.562H187.248V120.039H186.866V121.093H187.248V141.689H217.735V121.093H218.117V120.039H217.735V118.562H218.117Z" fill="#276034"/>
<path d="M60.7163 62.5832V61.7122H54.3192V62.5832H53.4392V142.168H79.7236V62.5832H60.7163Z" fill="#2A813E"/>
<path d="M48.6132 135.733V133.429H45.461V88.0303H41.964V80.8284H24.9921V88.0303H24.6459V117.142H18.4704V119.447H17.2036V141.975H50.4848V135.733H48.6132Z" fill="#46474A"/>
<path d="M57.1359 140.448V136.29H57.2612V136.06H57.1359V135.565H57.2612V135.335H56.6636V132.969V131.032V127.132V125.952H56.7375V125.722H56.5245V124.501H56.6078V124.271H56.4043V113.618H56.5318V113.388H56.4557V113.207H56.405V112.893H56.5325V112.663H56.405V111.921V111.805H56.4883V111.623H56.5325V111.393V111.212H56.292V110.592C56.292 110.472 56.2595 110.358 56.208 110.253C56.1906 110.218 56.1624 110.19 56.1399 110.157C56.0958 110.092 56.0501 110.029 55.9886 109.974C55.9523 109.941 55.9096 109.917 55.8676 109.889C55.8039 109.846 55.7387 109.808 55.6641 109.777C55.6126 109.756 55.5605 109.741 55.5047 109.727C55.4634 109.716 55.4272 109.696 55.3838 109.689H55.3859V109.459H42.1818V109.687C42.1384 109.694 42.1022 109.714 42.0602 109.724C41.9979 109.74 41.9392 109.754 41.8827 109.778C41.8132 109.806 41.7538 109.843 41.6929 109.882C41.6466 109.913 41.5995 109.938 41.5597 109.974C41.5003 110.027 41.4568 110.088 41.4133 110.151C41.3894 110.186 41.3583 110.215 41.3402 110.253C41.288 110.358 41.2562 110.472 41.2562 110.593V111.213H41.0157V111.394V111.624H41.0599V111.805H41.1432V112.664H41.0157V112.893H41.1432V113.208H41.0925V113.389H41.0164V113.619H41.1439V124.271H40.9404V124.501H41.0237V125.723H40.8107V125.952H40.8846V127.132V131.032V132.969V135.336H40.2878V135.566H40.4131V136.062H40.2878V136.291H40.4131V140.449H40.2603V142.286H57.2901V140.449H57.1373L57.1359 140.448Z" fill="#276034"/>
<path d="M228.262 50.2568H227.857L222.011 48.9435H221.911L223.935 47.1248V46.5403H201.768V47.1248L203.792 48.9435L200.962 49.5795L197.947 50.2568H197.946H197.663L198.053 50.7403H198.68L203.324 53.8021V54.2482H203.792V55.3735H205.787V56.2832V57.3441H204.052H199.113V59.0327H199.721V59.9424H199.747V60.4619H199.113V61.5158H200.672V62.4106V62.8142H201.257V63.4207V64.0992H200.672V65.4125H201.257V66.019V66.6975H200.672V68.0108H201.257V68.6172V69.1219H200.672V70.4359H201.257V71.0417V71.7202H200.672V73.0335H201.257V73.6399V74.3185H200.672V75.6318H201.257V76.2382V76.9168H200.672V78.2301H201.257V78.8365V79.5144H200.672V80.8283H201.257V82.1127H200.672V83.426H201.257V84.0324V84.7109H200.672V86.0242H201.257V86.6307V87.136H200.672V88.4493H201.257V89.0558V89.7337H200.672V91.0476H201.257V91.6534V92.3319H200.672V93.6452H201.257V94.2517V94.9302H200.672V96.2435H201.257V96.8499V97.5285H200.672V98.8418H201.257V99.4482V100.126H200.672V101.44H201.257V102.046V102.898H200.672V104.211H201.257V104.817V105.323H200.672V106.636H201.257V107.242V107.921H200.672V109.234H201.257V109.841V110.519H200.672V111.832H201.257V112.438V113.117H200.672V114.431H201.257V114.604V115.21V115.715H200.672V117.028H201.257V117.635V118.313H200.672V119.627H201.257V120.233V120.912H200.671V122.225H201.257V122.831V123.639H200.672V124.953H201.257V124.996V125.602V126.108H200.671V127.421H201.257V128.027V128.619H200.672V129.933H201.257V130.539V131.347H200.671V132.66H201.257V133.267V134.018H200.672V135.331H201.257V135.937V136.673H200.672V137.986H201.257V138.943V141.989H201.405H202.405H206.792H207.912H212.299H213.469H217.856H218.959H223.347H224.347H224.547V137.986H225.131V136.673H224.547V135.331H225.131V134.018H224.547V132.66H225.131V131.347H224.547V129.933H225.131V128.619H224.547V127.421H225.131V126.108H224.547V124.953H225.131V123.639H224.547V122.225H225.131V120.912H224.547V119.627H225.131V118.313H224.547V117.028H225.131V115.715H224.547V114.431H225.131V113.117H224.547V111.832H225.131V110.519H224.547V109.234H225.131V107.921H224.547V106.636H225.131V105.323H224.547V104.211H225.131V102.898H224.547V101.44H225.131V100.126H224.547V98.8418H225.131V97.5285H224.547V96.2435H225.131V94.9302H224.547V93.6452H225.131V92.3319H224.547V91.0476H225.131V89.7337H224.547V88.4493H225.131V87.136H224.547V86.0242H225.131V84.7109H224.547V83.426H225.131V82.1127H224.547V80.8283H225.131V79.5144H224.547V78.2301H225.131V76.9168H224.547V75.6318H225.131V74.3185H224.547V73.0335H225.131V71.7202H224.547V70.4359H225.131V69.1219H224.547V68.0108H225.131V66.6975H224.547V65.4125H225.131V64.0992H224.547V62.8142H225.131V61.5158H226.69H226.691V60.4619H226.69H225.761V59.9424V59.0327H226.69H226.691V57.3441H226.69H221.777H221.752H220.016V56.2832V55.3735H222.059V54.2482H222.528V53.7699L227.123 50.7403H227.872L228.262 50.2568Z" fill="#38A852"/>
<path d="M195.666 124.74H190.448V103.446H190.6V102.79H189.863V72.8865H190.448V71.6511H184.534H183.133V65.962H183.387V64.7266H180.669V34.6225H180.868V33.3871H179.498V28.7925H179.864V27.5571H179.498V26.4517H174.515H178.901V26.1266V25.3895V25.0644H178.52H176.342V21.9639V19.2125V18.5783V18.2127H176.865L177.158 17.2863H175.875L169.859 6.75607L169.623 6.34277V5.51745H170.028V4.61746H169.623V4.25759H169.488V3.74836H169.349L169.313 3.04665L169.157 -0.000976562H169.076L168.884 3.74836H168.745V4.25759H168.611V4.61746H168.206V5.51745H168.611V6.34277L162.358 17.2863H161.211L161.504 18.2127H162.022V25.0644H159.844H159.463V26.4517H164.001H158.87V27.5571H158.504V28.7925H158.87V33.3871H157.298V34.6225H157.486V64.7266H155.129V65.962H155.383V71.6221H148.068V72.8575H148.653V102.79H147.916V103.446H148.068V124.74H142.849V141.537H195.667V124.74H195.666Z" fill="#38A852"/>
<path d="M60.5969 137.813C59.3845 137.813 58.285 138.241 57.4803 138.934C56.6727 138.241 55.5753 137.813 54.3657 137.813C53.1561 137.813 52.0885 138.224 51.2911 138.904C50.4864 138.225 49.4057 137.813 48.2135 137.813C45.8066 137.813 43.8459 139.494 43.7336 141.614H65.0797C64.9631 139.494 63.0045 137.813 60.5977 137.813H60.5969Z" fill="#276034"/>
<path d="M206.237 137.813C205.024 137.813 203.925 138.241 203.12 138.934C202.313 138.241 201.215 137.813 200.006 137.813C198.796 137.813 197.728 138.224 196.931 138.904C196.126 138.225 195.046 137.813 193.853 137.813C191.446 137.813 189.486 139.494 189.374 141.614H210.72C210.603 139.494 208.644 137.813 206.238 137.813H206.237Z" fill="#46474A"/>
<path d="M310.893 137.813C309.68 137.813 308.581 138.241 307.776 138.934C306.968 138.241 305.871 137.813 304.661 137.813C303.452 137.813 302.384 138.224 301.587 138.904C300.782 138.225 299.701 137.813 298.509 137.813C296.102 137.813 294.142 139.494 294.029 141.614H315.375C315.259 139.494 313.3 137.813 310.893 137.813H310.893Z" fill="#46474A"/>
<path d="M342.728 137.813C341.516 137.813 340.416 138.241 339.611 138.934C338.804 138.241 337.706 137.813 336.497 137.813C335.287 137.813 334.22 138.224 333.422 138.904C332.617 138.225 331.537 137.813 330.345 137.813C327.938 137.813 325.977 139.494 325.865 141.614H347.211C347.094 139.494 345.136 137.813 342.729 137.813H342.728Z" fill="#D8DFEA"/>
<path d="M252.594 131.345L252.602 131.341H252.596L252.6 131.339H252.585L252.084 130.226L252.082 130.224L230.915 112.826L229.814 111.68L229.812 111.678H229.733H229.475H229.397L228.618 112.487L207.039 130.224L206.412 131.339L206.415 131.341L206.414 131.341H206.415L206.413 131.345L221.457 138.644H219.827V141.339H219.828V141.344H239.303V141.341H239.304V138.646H239.302V138.644H237.556L252.6 131.345H252.594Z" fill="#146D28"/>
<path d="M136.356 129.534L136.348 129.476V129.534H136.356Z" fill="#276034"/>
<path d="M137.792 140.208H137.863L137.768 139.512H137.76V139.508H137.696L137.3 136.608H137.371L137.276 135.912H137.268V135.908H137.205L136.808 133.008H136.879L136.785 132.312H136.777V132.308H136.713L136.317 129.408H136.388L136.293 128.712H136.285V128.708H136.221L135.871 126.148H135.942L135.847 125.451H135.839V125.448H135.776L135.379 122.548H135.45L135.355 121.852H135.348V121.848H135.284L134.888 118.948H134.959L134.864 118.252H134.856V118.248H134.792L134.414 115.478H134.444L134.426 115.348H134.467L134.372 114.652H134.364V114.648H134.3L133.904 111.748H133.975L133.88 111.052H133.872V111.048H133.808L133.412 108.148H133.483L133.388 107.452H133.38V107.448H133.317L132.967 104.888H133.038L132.943 104.191H132.935V104.188H132.871L132.493 101.418H132.523L132.505 101.288H132.546L132.451 100.592H132.443V100.588H132.379L131.983 97.6881H132.054L131.959 96.9915H131.951V96.9883H131.887L131.491 94.0881H131.562L131.467 93.3915H131.459V93.3883H131.396L130.999 90.4881H131.07L130.976 89.7916H130.968V89.7883H130.904L130.526 87.0182H130.556L130.538 86.8881H130.579L130.484 86.1916H130.476V86.1884H130.412L130.062 83.6281H130.133L130.038 82.9315H130.03V82.9283H129.967L129.57 80.0281H129.641L129.547 79.3315H129.539V79.3283H129.475L129.079 76.4281H129.15L129.055 75.7315H129.047V75.7283H128.983L128.587 72.8281H128.658L128.563 72.1316H128.555V72.1283H128.491L128.095 69.2281H128.166L128.071 68.5316H128.063V68.5284H127.999L127.603 65.6282H127.674L127.579 64.9316H127.571V64.9284H127.508L127.132 62.1737L127.258 60.8481L127.25 60.8501V60.8449L125.714 61.2312V61.1069H125.706V61.1037H119.23V57.0775H119.917V56.7988C120.328 56.361 120.478 55.5067 120.528 54.8173C121.029 53.8194 121.166 52.6387 120.924 51.3035C121.2 50.437 121.381 49.4849 121.379 48.4529C121.376 47.3817 120.989 45.9905 120.459 44.587C120.979 41.4448 119.173 38.271 119.075 38.1004V38.0972H119.066V38.0939H118.281V30.8315H118.988V30.3036H118.979V30.3004H118.612V30.1903H119.863V29.6624H119.855V29.6592H118.28V28.7077H118.271V28.7045H118.11V24.8721H118.101V24.8689H117.58V28.7045H117.411V29.6592H115.827V30.1871H115.836V30.1903H117.079V30.3004H116.705V30.8283H116.713V30.8315H117.412V38.0939H116.579C116.493 38.242 114.561 41.6193 115.247 44.8645C114.771 46.172 114.432 47.4499 114.431 48.4497C114.429 49.3883 114.579 50.2613 114.813 51.0641C114.519 52.4565 114.625 53.6887 115.118 54.7265C115.163 55.4314 115.308 56.3424 115.738 56.7975V57.0743H115.746V57.0775H116.464V61.1037H110.159V65.146L108.435 65.5799L108.714 67.4803L108.566 68.5284H108.563L108.511 68.9024V68.8702L108.442 69.3556H108.444L108.115 71.6777V71.708L108.056 72.129H108.053L107.955 72.8255H107.957L107.546 75.729H107.544L107.446 76.4255H107.447L107.036 79.3289H107.034L106.936 80.0255H106.937L106.526 82.9289H106.524L106.469 83.3249V83.2927L106.403 83.7562H106.405L106.072 86.1002V86.124L106.063 86.1896H106.062L105.964 86.8862H105.965L105.553 89.7896H105.552L105.454 90.4862H105.455L105.043 93.3896L104.945 94.0862L104.533 96.9896L104.435 97.6862L104.426 97.7493V97.7145L104.412 97.8162H104.414L104.03 100.521V100.539L104.023 100.589L103.924 101.285L102.575 110.802V110.789L102.52 111.178H102.518L102.419 111.874H102.421L102.179 113.58V113.592L100.531 125.217V125.209L100.479 125.577H100.477L100.378 126.274H100.38L100.135 128.001V128.007L98.4868 139.632L98.4861 139.637H98.4839L98.3854 140.334H98.3876L98.2275 141.465H98.2362V141.468H98.4955H137.971L137.799 140.207L137.792 140.208ZM115.787 55.7572C115.987 55.9909 116.212 56.211 116.463 56.4158V56.5773H116.21C116.017 56.4415 115.88 56.1344 115.787 55.7572ZM120.862 48.4529C120.864 49.0915 120.793 49.6954 120.673 50.2658C120.424 49.4495 120.076 48.6673 119.702 47.9624H120.776V47.7332H120.767V47.7299H119.576C119.502 47.5954 119.427 47.4641 119.353 47.3366C119.731 46.6948 120.046 46.0729 120.238 45.4948C120.609 46.5885 120.859 47.6295 120.861 48.4536L120.862 48.4529ZM116.463 53.6153C116.293 53.3115 116.124 52.9922 115.964 52.6555C116.098 52.3696 116.27 52.0619 116.463 51.74V53.6153ZM119.23 53.8201V51.8031C119.445 52.1649 119.629 52.5074 119.766 52.8222C119.593 53.1737 119.411 53.5059 119.23 53.8201ZM118.677 41.7795C118.728 41.8851 118.78 41.9926 118.831 42.1014C118.826 42.5463 118.78 42.9976 118.677 43.434V41.7802V41.7795ZM117.017 42.0268V43.4225C116.933 43.0658 116.887 42.6995 116.871 42.3345C116.92 42.2308 116.968 42.1278 117.017 42.0261V42.0268ZM117.017 47.1834V47.5516C116.978 47.4905 116.941 47.4293 116.904 47.3688C116.941 47.3057 116.979 47.2445 117.017 47.1834ZM119.671 54.0621C119.777 53.8786 119.884 53.69 119.989 53.4911C120.013 53.6044 120.028 53.7132 120.03 53.8143C120.034 53.8922 120.036 53.9758 120.036 54.0621H119.671ZM119.253 50.896C119.245 50.8851 119.238 50.8741 119.231 50.8632V49.9194H119.222V49.9162H118.678V48.4149C118.777 48.2636 118.875 48.113 118.97 47.963H119.133C119.596 48.8096 120.031 49.7829 120.291 50.7937C120.299 50.8284 120.307 50.8619 120.315 50.8967H119.253V50.896ZM118.678 47.1795C118.709 47.2297 118.739 47.2806 118.77 47.3321C118.74 47.3823 118.709 47.4325 118.678 47.4834V47.1802V47.1795ZM118.678 44.8175C118.682 44.8104 118.686 44.8027 118.689 44.7956H119.894C119.868 44.916 119.842 45.0364 119.808 45.1555C119.661 45.6763 119.392 46.248 119.056 46.8448C118.926 46.6381 118.799 46.4437 118.677 46.2641V44.8175H118.678ZM118.815 44.5632C119.052 44.0894 119.197 43.5821 119.277 43.069C119.495 43.5589 119.706 44.0617 119.9 44.5632H118.815ZM117.374 39.2611H117.275C117.287 39.2205 117.298 39.1819 117.309 39.1439C117.33 39.1813 117.351 39.2199 117.373 39.2611H117.374ZM117.017 40.8628C116.984 40.9272 116.952 40.9916 116.919 41.0572C116.945 40.8255 116.978 40.6008 117.017 40.3864V40.8628ZM117.017 44.8149V46.2609C116.887 46.4514 116.752 46.6581 116.615 46.8782C116.27 46.2705 115.995 45.6885 115.846 45.1587C115.822 45.0744 115.802 44.99 115.783 44.9057C115.796 44.869 115.81 44.8323 115.824 44.7956H117.007C117.01 44.8021 117.014 44.8079 117.017 44.8143L117.017 44.8149ZM119.23 55.7694V54.8025C119.329 54.6402 119.431 54.4728 119.536 54.2945H120.035C120.032 54.4368 120.026 54.5849 120.015 54.7349C119.813 55.1102 119.551 55.4546 119.23 55.7694ZM119.4 51.1284H120.368C120.379 51.1793 120.39 51.2295 120.4 51.2797C120.292 51.608 120.171 51.9241 120.04 52.2274C119.861 51.8791 119.642 51.5102 119.4 51.1284H119.4ZM120.031 43.5203C119.813 43.0047 119.584 42.498 119.356 42.0158C119.356 41.8858 119.353 41.7577 119.348 41.6296H119.836C119.96 42.2276 120.039 42.8682 120.031 43.5197V43.5203ZM118.738 40.7553C118.717 40.7154 118.697 40.6755 118.677 40.6356V40.3768C118.699 40.4997 118.72 40.6259 118.738 40.7553ZM115.818 41.6296H116.345C116.336 41.8349 116.334 42.0441 116.341 42.254C116.1 42.7735 115.859 43.3169 115.634 43.8667C115.588 43.0967 115.672 42.3332 115.818 41.6296ZM116.88 44.5632H115.911C116.08 44.128 116.262 43.6916 116.45 43.2635C116.534 43.7102 116.672 44.1493 116.88 44.5632ZM115.989 47.9624C115.651 48.5997 115.334 49.3008 115.093 50.0334C115.002 49.5325 114.947 49.0078 114.948 48.4561C114.948 48.2997 114.96 48.1336 114.977 47.9624H115.989ZM115.403 50.7962C115.662 49.7842 116.099 48.8096 116.563 47.9624H116.685C116.793 48.1317 116.903 48.3023 117.016 48.4729V49.9156H116.463V50.7962C116.441 50.8297 116.42 50.8626 116.398 50.8954H115.381C115.389 50.8619 115.394 50.8297 115.403 50.7956V50.7962ZM116.249 51.1284C116.045 51.451 115.858 51.7632 115.697 52.0619C115.573 51.7632 115.461 51.451 115.361 51.1284H116.249ZM115.623 53.811C115.625 53.652 115.659 53.475 115.715 53.2851C115.856 53.5574 115.999 53.8162 116.14 54.0621H115.617C115.617 53.9746 115.62 53.8896 115.623 53.811ZM120.477 53.3231C120.438 53.1673 120.385 53.0044 120.317 52.8351C120.389 52.6838 120.459 52.528 120.527 52.369C120.539 52.7005 120.522 53.0186 120.477 53.3231ZM119.333 41.3971C119.251 40.2441 118.96 39.2199 118.774 38.663C118.779 38.6547 118.783 38.6463 118.788 38.6392C119.038 39.1407 119.499 40.163 119.784 41.3978H119.333V41.3971ZM116.938 38.5987C116.753 39.1407 116.442 40.201 116.358 41.3971H115.868C116.161 40.1283 116.64 39.0834 116.885 38.5987H116.938ZM116.319 47.3675C116.25 47.4853 116.182 47.6063 116.114 47.7299H115.004C115.088 47.119 115.262 46.4353 115.495 45.7227C115.693 46.2448 115.981 46.7991 116.318 47.3675H116.319ZM115.406 52.6529C115.321 52.8467 115.253 53.0327 115.202 53.2091C115.16 52.864 115.151 52.5035 115.179 52.1237C115.252 52.304 115.328 52.481 115.406 52.6522V52.6529ZM116.276 54.2952C116.339 54.402 116.401 54.5063 116.463 54.6074V55.7688C116.116 55.4288 115.839 55.0535 115.631 54.6428C115.624 54.5243 115.62 54.4078 115.618 54.2945H116.277L116.276 54.2952ZM119.23 56.4145C119.458 56.2284 119.664 56.0301 119.85 55.8203C119.756 56.1698 119.623 56.4512 119.44 56.578H119.23V56.4145Z" fill="#276034"/>
<path d="M136.518 129.476V129.534H136.525L136.518 129.476Z" fill="#276034"/>
<path d="M118.494 137.551C117.282 137.551 116.182 137.979 115.378 138.672C114.57 137.979 113.473 137.551 112.263 137.551C111.054 137.551 109.986 137.962 109.189 138.642C108.384 137.963 107.303 137.551 106.111 137.551C103.704 137.551 101.743 139.232 101.631 141.352H122.977C122.861 139.232 120.902 137.551 118.495 137.551H118.494Z" fill="#46474A"/>
<path d="M104.876 141.775L104.011 127.204C103.999 127.013 103.821 126.863 103.606 126.863H91.5662L90.2943 121.727L91.8255 115.626L91.8364 115.582L90.2972 110.609L91.8371 105.715L90.2943 100.481L91.8342 93.6825L90.2936 87.212L91.8357 80.818L90.2893 75.7386L90.3096 73.6316L90.4378 69.5339L68.2059 74.2779V74.2798L68.1921 74.2831L68.5579 75.7592L70.079 81.9852L68.5384 87.0459L70.0804 93.4398L68.5485 99.8737L68.5398 99.9104L70.0797 106.709L68.5369 111.943L70.0768 116.837L68.5376 121.81L69.8052 126.863H56.877C56.8205 126.863 56.7669 126.874 56.7177 126.893C56.5728 126.942 56.4671 127.064 56.4584 127.21L55.5928 141.78C55.587 141.879 55.6269 141.975 55.7037 142.047C55.7804 142.119 55.8869 142.159 55.9977 142.159H63.0909C63.0909 142.159 63.0916 142.159 63.0923 142.159C63.0923 142.159 63.093 142.159 63.0938 142.159H77.4908C77.4908 142.159 77.4915 142.159 77.4922 142.159C77.4922 142.159 77.493 142.159 77.4937 142.159H86.6257C86.6257 142.159 86.6265 142.159 86.6272 142.159C86.6272 142.159 86.6279 142.159 86.6286 142.159H102.117C102.191 142.213 102.282 142.241 102.375 142.241C102.421 142.241 102.468 142.233 102.513 142.219C102.553 142.208 102.592 142.19 102.629 142.166C102.632 142.165 102.634 142.162 102.637 142.159H104.456C104.513 142.159 104.569 142.148 104.62 142.128C104.674 142.109 104.723 142.08 104.764 142.042C104.841 141.97 104.88 141.874 104.875 141.775H104.876Z" fill="#38A852"/>
<path d="M36.1146 141.799C35.8111 136.16 30.5787 131.67 24.144 131.67C17.7092 131.67 12.4797 136.16 12.1741 141.799H36.1146Z" fill="#276034"/>
<path d="M17.1313 127.409C17.1313 127.409 16.7757 135.399 16.2542 141.348L17.8013 141.411L17.5224 127.422L17.1313 127.408V127.409Z" fill="#D8DFEA"/>
<path d="M12.7325 131.3C12.7325 131.3 13.115 128.368 15.9354 127.987C16.1288 127.96 13.0519 127.293 11.8264 127.702C11.507 127.81 13.0614 124.902 16.2005 126.672C16.7582 126.986 15.0612 124.857 15.0612 124.857C15.0612 124.857 17.2848 125.108 17.4101 126.831C17.4297 127.122 18.6392 124.166 21.6451 126.636C21.6951 126.677 18.5052 127.301 18.5603 127.408C18.6161 127.513 22.3788 126.831 22.4889 129.749C22.4911 129.791 19.4403 128.658 18.4857 128.683C18.4038 128.686 21.3728 130.043 19.7829 133.057C19.6982 133.21 17.8092 131.817 17.5426 129.908C17.4195 129.003 17.4231 128.411 17.4231 128.411C17.4231 128.411 16.1404 130.798 12.7325 131.299V131.3Z" fill="#D8DFEA"/>
<path d="M305.644 129.515V128.618H304.968V127.247H303.324V126.61V126.567V126.131V124.43H302.533V124.112H302.442L302.404 123.805L302.366 123.499H302.384V123.252H302.504V123.006H283.321V122.661H283.27V120.199H283.244V119.179H283.186V120.199H283.159V122.661H283.108V123.006H265.011V123.252H265.132V123.499H265.26L265.24 123.666L265.223 123.8H263.715V124.046H263.736V124.292H263.849L263.825 124.43H263.091V126.61V127.247H261.447V128.618H260.76V129.515H260.257V129.951H260.626V141.293H261.844H283.247H284.802H304.529H305.747V140.808V140.456V139.775V139.423V138.743V138.39V137.71V137.357V136.703V136.35V135.67V135.317V134.637V134.285V133.604V133.251V132.572V132.219V131.539V131.186V129.951H305.931V129.515H305.644Z" fill="#CE3C3C" fill-opacity="0.92"/>
<path d="M293.015 139.846C292.544 139.846 292.12 140.009 291.807 140.279C291.494 140.009 291.069 139.846 290.598 139.846C290.127 139.846 289.715 140.005 289.404 140.268C289.092 140.005 288.674 139.846 288.211 139.846C287.277 139.846 286.516 140.499 286.47 141.32H294.757C294.713 140.499 293.95 139.846 293.016 139.846H293.015Z" fill="#5AA5FF"/>
<path d="M185.971 126.576L167.912 126.576V127.187H167.919L168.04 127.188V127.837H137.336V99.3279H137.328L137.069 99.3272V98.086H137.496V97.7422H137.488L137.336 97.7416V97.3985H137.328L134.596 97.3978V84.9402H134.959V84.5964H134.951L134.877 84.5957V84.2526H134.869L132.573 84.252V82.9728H132.565L132.407 82.9721V77.5207H132.399L127.533 77.52V80.4247H127.541L132.195 80.4254V82.9721H132.029V84.2526H129.725V84.5964H129.643V84.9402H129.651L129.733 84.9408H130.006V97.3985H127.266V97.7422H127.106V98.086H127.114L127.274 98.0867H127.533V99.3279H127.266V127.837H119.137V141.558H119.145L125.681 141.558H185.849V127.188H185.978V126.577H185.97L185.971 126.576ZM133.791 94.1867H132.573V91.665H133.791V94.1867ZM133.791 90.9762H133.724V88.4545H133.791V90.9762ZM133.791 87.7657H132.573V85.244H133.791V87.7657ZM132.03 85.244V87.7657H130.812V85.244H132.03ZM130.878 88.4545V90.9762H130.812V88.4545H130.878ZM132.03 91.665V94.1867H130.812V91.665H132.03ZM133.791 98.6197V99.3266H132.573V98.0854H133.79V98.6197H133.791ZM130.813 98.6204V98.0854H132.03V99.3266H130.812V98.6204H130.813ZM136.319 99.3266H134.596V98.6204V98.0854H136.319V99.3266ZM132.573 97.3965V94.8749H133.792V97.3965H132.573ZM132.031 94.8749V97.3965H130.813V94.8749H132.031ZM128.285 98.0854H130.008V99.3266H128.285V98.0854Z" fill="#CE3C3C" fill-opacity="0.92"/>
<path d="M124.774 140.381H124.418L123.703 132.872C123.701 132.851 123.684 132.693 123.601 132.457C123.591 132.431 123.581 132.404 123.57 132.376C123.548 132.32 123.522 132.261 123.493 132.198C123.389 131.98 123.234 131.727 123.004 131.467C122.578 130.984 121.892 130.477 120.79 130.124L120.771 130.118C120.624 130.071 120.479 130.025 120.335 129.979C120.298 129.967 120.262 129.955 120.225 129.943C120.115 129.908 120.005 129.873 119.897 129.838C119.859 129.826 119.82 129.814 119.781 129.802C119.653 129.761 119.526 129.72 119.4 129.68C119.383 129.675 119.366 129.67 119.349 129.664C119.224 129.625 119.102 129.586 118.98 129.547C118.935 129.533 118.89 129.518 118.845 129.504C118.753 129.475 118.662 129.446 118.572 129.418C118.533 129.406 118.494 129.393 118.454 129.38C118.336 129.343 118.219 129.306 118.104 129.27C118.092 129.266 118.08 129.262 118.068 129.258C117.947 129.22 117.829 129.183 117.712 129.146C117.674 129.135 117.637 129.122 117.6 129.111C117.513 129.083 117.426 129.056 117.34 129.03C117.304 129.018 117.268 129.007 117.232 128.996C117.124 128.961 117.017 128.928 116.912 128.895C116.901 128.892 116.891 128.889 116.88 128.885C116.77 128.851 116.66 128.817 116.553 128.784C116.515 128.772 116.478 128.761 116.441 128.749C116.363 128.724 116.287 128.701 116.21 128.677C116.175 128.666 116.141 128.656 116.107 128.645C116.005 128.613 115.904 128.582 115.805 128.551C115.8 128.55 115.795 128.548 115.79 128.547C115.687 128.515 115.585 128.483 115.483 128.452C115.451 128.443 115.42 128.432 115.387 128.423C115.316 128.401 115.245 128.379 115.175 128.358C115.142 128.347 115.108 128.337 115.076 128.327C114.99 128.3 114.905 128.274 114.822 128.249C114.81 128.245 114.798 128.242 114.787 128.238C114.692 128.209 114.6 128.18 114.508 128.153C114.48 128.144 114.453 128.135 114.424 128.127C114.358 128.106 114.291 128.087 114.226 128.067C114.197 128.058 114.169 128.049 114.14 128.041C114.062 128.017 113.984 127.993 113.908 127.971C113.897 127.967 113.886 127.964 113.875 127.961C113.789 127.935 113.704 127.909 113.62 127.884C113.597 127.877 113.574 127.87 113.551 127.864C113.488 127.845 113.425 127.826 113.363 127.808C113.339 127.801 113.314 127.793 113.29 127.786C113.215 127.763 113.14 127.741 113.066 127.719C113.061 127.718 113.055 127.716 113.05 127.714C112.972 127.691 112.895 127.668 112.819 127.646C112.796 127.638 112.774 127.632 112.751 127.626C112.696 127.609 112.641 127.593 112.587 127.577C112.564 127.571 112.541 127.564 112.519 127.557C112.455 127.539 112.393 127.52 112.33 127.502C112.32 127.499 112.31 127.496 112.301 127.493C112.231 127.472 112.163 127.453 112.096 127.433C112.075 127.427 112.054 127.421 112.033 127.415C111.983 127.401 111.934 127.386 111.886 127.373C111.865 127.367 111.844 127.361 111.824 127.355C111.766 127.338 111.709 127.322 111.653 127.306C111.645 127.304 111.637 127.302 111.63 127.3C111.567 127.282 111.505 127.264 111.445 127.247C111.426 127.242 111.408 127.237 111.39 127.232C111.346 127.219 111.303 127.206 111.26 127.194C111.241 127.189 111.222 127.183 111.203 127.178C111.151 127.163 111.099 127.149 111.048 127.134C111.042 127.133 111.036 127.131 111.031 127.13C110.974 127.114 110.919 127.099 110.864 127.083C110.848 127.079 110.833 127.074 110.817 127.071C110.777 127.06 110.739 127.049 110.701 127.039C110.684 127.035 110.667 127.029 110.65 127.025C110.607 127.013 110.564 127.001 110.522 126.99C110.513 126.987 110.504 126.985 110.496 126.982C110.446 126.969 110.399 126.956 110.352 126.943C110.337 126.939 110.323 126.935 110.309 126.932C110.274 126.922 110.24 126.913 110.206 126.904C110.192 126.9 110.177 126.896 110.163 126.892C110.123 126.882 110.084 126.872 110.046 126.861C110.04 126.86 110.034 126.858 110.028 126.857C109.984 126.845 109.942 126.834 109.9 126.823C109.887 126.82 109.874 126.817 109.862 126.813C109.832 126.805 109.802 126.798 109.773 126.79C109.76 126.787 109.747 126.783 109.734 126.78C109.702 126.772 109.67 126.764 109.638 126.756C109.631 126.754 109.623 126.752 109.616 126.75C109.579 126.74 109.543 126.731 109.506 126.723C109.494 126.72 109.482 126.717 109.471 126.714C109.445 126.708 109.421 126.702 109.397 126.696C109.385 126.693 109.372 126.69 109.36 126.687C109.332 126.68 109.304 126.673 109.276 126.666C109.271 126.665 109.265 126.664 109.259 126.662C109.227 126.655 109.196 126.647 109.165 126.64C109.154 126.637 109.144 126.635 109.133 126.632C109.112 126.627 109.091 126.623 109.071 126.617C109.06 126.615 109.05 126.612 109.039 126.61C109.016 126.605 108.994 126.6 108.972 126.595C108.965 126.594 108.958 126.592 108.952 126.59C108.925 126.585 108.898 126.579 108.873 126.573C108.863 126.571 108.854 126.569 108.844 126.567C108.827 126.563 108.81 126.559 108.794 126.556C108.784 126.554 108.774 126.552 108.765 126.549C108.747 126.545 108.729 126.541 108.711 126.538C108.705 126.537 108.697 126.535 108.69 126.534V125.245L107.575 124.878L106.461 125.245V126.523C106.461 126.523 106.458 126.523 106.456 126.523C106.419 126.53 106.381 126.539 106.341 126.547C106.34 126.547 106.339 126.547 106.337 126.548C106.32 126.552 106.303 126.556 106.285 126.559C106.277 126.561 106.27 126.563 106.263 126.564C106.245 126.568 106.227 126.572 106.21 126.576C106.203 126.577 106.196 126.579 106.189 126.58C106.13 126.593 106.067 126.608 106.001 126.623C105.991 126.624 105.983 126.627 105.973 126.629C105.954 126.633 105.934 126.638 105.914 126.643C105.903 126.646 105.892 126.648 105.881 126.651C105.815 126.667 105.744 126.684 105.67 126.702C105.658 126.705 105.645 126.708 105.632 126.711C105.611 126.717 105.589 126.722 105.568 126.727C105.554 126.731 105.539 126.735 105.526 126.738C105.503 126.744 105.481 126.749 105.457 126.755C105.447 126.758 105.437 126.76 105.428 126.763C105.384 126.774 105.339 126.785 105.293 126.797C105.275 126.802 105.258 126.806 105.239 126.811C105.216 126.817 105.192 126.823 105.168 126.83C105.15 126.834 105.133 126.839 105.115 126.843C105.09 126.85 105.066 126.856 105.041 126.863C105.019 126.868 104.998 126.874 104.976 126.88C104.937 126.89 104.898 126.901 104.858 126.912C104.835 126.918 104.811 126.924 104.787 126.931C104.763 126.937 104.737 126.944 104.713 126.951C104.69 126.957 104.668 126.963 104.645 126.97C104.619 126.977 104.593 126.984 104.566 126.991C104.541 126.997 104.516 127.004 104.491 127.011C104.448 127.023 104.406 127.035 104.363 127.047C104.334 127.055 104.304 127.063 104.275 127.071C104.249 127.078 104.222 127.086 104.195 127.093C104.167 127.101 104.138 127.109 104.11 127.117C104.083 127.125 104.056 127.132 104.029 127.14C103.996 127.149 103.962 127.159 103.927 127.168C103.902 127.176 103.876 127.183 103.85 127.19C103.799 127.205 103.747 127.219 103.694 127.235C103.668 127.243 103.641 127.25 103.614 127.258C103.579 127.268 103.545 127.278 103.509 127.288C103.48 127.297 103.451 127.305 103.421 127.313C103.385 127.324 103.348 127.335 103.311 127.345C103.284 127.353 103.256 127.361 103.228 127.369C103.167 127.386 103.106 127.404 103.043 127.422C103.017 127.43 102.99 127.438 102.962 127.446C102.92 127.458 102.877 127.47 102.835 127.483C102.805 127.492 102.775 127.501 102.744 127.51C102.7 127.523 102.656 127.535 102.611 127.549C102.583 127.557 102.556 127.565 102.528 127.573C102.458 127.594 102.388 127.615 102.316 127.636C102.292 127.643 102.267 127.651 102.242 127.658C102.19 127.673 102.138 127.689 102.085 127.704C102.054 127.713 102.023 127.723 101.992 127.732C101.941 127.747 101.89 127.762 101.838 127.777C101.808 127.786 101.779 127.796 101.748 127.805C101.67 127.828 101.591 127.852 101.51 127.876C101.491 127.882 101.471 127.888 101.452 127.893C101.388 127.913 101.322 127.932 101.256 127.952C101.222 127.962 101.188 127.973 101.154 127.983C101.098 128 101.041 128.017 100.985 128.034C100.952 128.043 100.919 128.054 100.886 128.063C100.813 128.086 100.739 128.108 100.664 128.131C100.635 128.14 100.606 128.148 100.576 128.157C100.498 128.181 100.419 128.205 100.339 128.23C100.306 128.24 100.273 128.25 100.24 128.26C100.174 128.28 100.108 128.301 100.041 128.321C100.006 128.332 99.9708 128.343 99.9361 128.354C99.8636 128.376 99.7898 128.399 99.7152 128.422C99.6869 128.43 99.6594 128.439 99.6311 128.448C99.5326 128.478 99.4334 128.509 99.3327 128.54C99.3001 128.55 99.2661 128.56 99.2328 128.571C99.1589 128.593 99.085 128.616 99.0097 128.639C98.972 128.651 98.9336 128.663 98.8952 128.675C98.817 128.699 98.7373 128.724 98.6569 128.749C98.6251 128.759 98.5947 128.768 98.5628 128.779C98.4556 128.812 98.3477 128.846 98.2376 128.88C98.2006 128.892 98.163 128.903 98.1253 128.916C98.0449 128.941 97.9638 128.967 97.8812 128.992C97.8421 129.005 97.803 129.017 97.7639 129.029C97.6741 129.057 97.5835 129.086 97.4923 129.115C97.4611 129.124 97.4307 129.134 97.3995 129.144C97.2808 129.181 97.1605 129.219 97.0388 129.257C97.0048 129.268 96.9708 129.278 96.9367 129.289C96.8433 129.319 96.7491 129.348 96.6542 129.379C96.6108 129.392 96.5666 129.406 96.5231 129.42C96.4362 129.448 96.3493 129.476 96.2609 129.503C96.2139 129.518 96.1675 129.533 96.1204 129.548C95.9937 129.588 95.8655 129.629 95.7365 129.67C95.7112 129.678 95.6858 129.686 95.6605 129.694C95.5482 129.73 95.4345 129.766 95.3193 129.803C95.2773 129.816 95.2353 129.829 95.194 129.843C95.0912 129.876 94.9883 129.908 94.884 129.942C94.8413 129.955 94.7978 129.97 94.7544 129.983C94.6226 130.026 94.4886 130.068 94.3538 130.111C94.3437 130.114 94.3336 130.118 94.3234 130.121L94.3169 130.123L94.3046 130.127C92.0013 130.864 91.5153 132.277 91.4168 132.731C91.4074 132.774 91.4016 132.808 91.3979 132.832C91.395 132.854 91.3936 132.868 91.3929 132.874L90.6773 140.384H90.3079V141.889H92.3222V140.384H91.9202L92.6271 132.964C92.6271 132.961 92.6416 132.856 92.7111 132.695C92.7256 132.661 92.7437 132.624 92.764 132.585C92.7741 132.565 92.7857 132.544 92.7973 132.523C92.8074 132.505 92.8176 132.487 92.8292 132.469C92.8502 132.435 92.8734 132.398 92.8994 132.361C93.1674 131.977 93.6954 131.493 94.7247 131.163L94.7435 131.157C94.8942 131.109 95.0427 131.061 95.1897 131.014C95.2121 131.007 95.2346 131 95.2571 130.993C95.386 130.952 95.5142 130.911 95.6402 130.871C95.659 130.865 95.6786 130.859 95.6974 130.853C95.8408 130.807 95.9828 130.762 96.1233 130.718C96.1306 130.715 96.1385 130.713 96.1458 130.711C96.2747 130.669 96.4014 130.629 96.5275 130.589C96.5536 130.581 96.5796 130.573 96.605 130.565C96.7267 130.526 96.8476 130.488 96.9664 130.45C96.9773 130.447 96.9889 130.443 96.9997 130.44C97.1323 130.398 97.2627 130.357 97.3909 130.317C97.4082 130.311 97.4249 130.306 97.4416 130.3C97.5495 130.266 97.6567 130.233 97.7624 130.199C97.7907 130.19 97.8189 130.182 97.8464 130.173C97.9623 130.136 98.0775 130.1 98.1905 130.065C98.1948 130.064 98.1992 130.062 98.2028 130.061C98.3209 130.024 98.4368 129.988 98.5512 129.952C98.5787 129.944 98.6055 129.935 98.633 129.926C98.7243 129.898 98.8141 129.87 98.9032 129.842C98.9293 129.834 98.9546 129.826 98.9807 129.818C99.0923 129.783 99.2023 129.749 99.311 129.715C99.3139 129.715 99.3168 129.713 99.3197 129.713C99.4233 129.68 99.5247 129.649 99.6253 129.618C99.6521 129.61 99.6789 129.601 99.7057 129.593C99.7919 129.567 99.8774 129.54 99.9614 129.514C99.9802 129.508 99.9991 129.502 100.017 129.496C100.118 129.465 100.218 129.435 100.316 129.404C100.334 129.399 100.352 129.393 100.37 129.388C100.45 129.363 100.53 129.339 100.609 129.314C100.634 129.306 100.659 129.299 100.684 129.291C100.762 129.267 100.839 129.243 100.915 129.22C100.933 129.215 100.951 129.209 100.968 129.204C101.057 129.177 101.146 129.15 101.233 129.124C101.256 129.117 101.28 129.109 101.304 129.102C101.369 129.082 101.434 129.062 101.498 129.042C101.524 129.035 101.55 129.027 101.575 129.019C101.745 128.968 101.91 128.918 102.07 128.871C102.092 128.864 102.115 128.857 102.137 128.851C102.196 128.833 102.254 128.816 102.312 128.799C102.335 128.791 102.359 128.784 102.381 128.778C102.455 128.756 102.528 128.734 102.601 128.713C102.617 128.708 102.633 128.703 102.65 128.698C102.708 128.681 102.765 128.664 102.822 128.647C102.844 128.641 102.867 128.634 102.89 128.627C102.945 128.611 102.999 128.595 103.053 128.58C103.069 128.574 103.087 128.57 103.103 128.565C103.17 128.546 103.236 128.526 103.301 128.507C103.321 128.501 103.339 128.496 103.358 128.49C103.405 128.477 103.453 128.462 103.499 128.45C103.522 128.443 103.545 128.436 103.567 128.43C103.616 128.415 103.663 128.402 103.71 128.388C103.725 128.384 103.739 128.379 103.754 128.376C103.813 128.359 103.87 128.342 103.927 128.326C103.947 128.32 103.968 128.314 103.987 128.309C104.026 128.298 104.065 128.287 104.103 128.276C104.125 128.269 104.146 128.264 104.167 128.258C104.219 128.243 104.269 128.229 104.319 128.215C104.333 128.211 104.348 128.207 104.362 128.203C104.404 128.191 104.445 128.18 104.485 128.169C104.504 128.164 104.523 128.158 104.542 128.153C104.576 128.143 104.609 128.134 104.643 128.124C104.661 128.119 104.68 128.114 104.698 128.109C104.743 128.097 104.788 128.084 104.832 128.072C104.851 128.067 104.871 128.061 104.89 128.056C104.918 128.049 104.946 128.041 104.973 128.034C104.992 128.029 105.012 128.023 105.032 128.018C105.058 128.011 105.085 128.003 105.111 127.996C105.134 127.989 105.158 127.983 105.18 127.977C105.213 127.968 105.247 127.959 105.279 127.95C105.298 127.945 105.317 127.94 105.336 127.935C105.358 127.929 105.379 127.924 105.4 127.918C105.419 127.913 105.438 127.908 105.457 127.903C105.48 127.897 105.502 127.891 105.524 127.886C105.552 127.879 105.578 127.871 105.605 127.864C105.626 127.859 105.647 127.853 105.668 127.848C105.685 127.844 105.702 127.839 105.72 127.835C105.738 127.83 105.755 127.826 105.773 127.821C105.79 127.817 105.807 127.812 105.825 127.808C105.842 127.803 105.859 127.799 105.875 127.795C105.904 127.788 105.933 127.78 105.961 127.774C105.975 127.77 105.988 127.767 106.001 127.763C106.019 127.759 106.036 127.755 106.053 127.75C106.064 127.747 106.077 127.745 106.088 127.742C106.148 127.727 106.205 127.714 106.259 127.701C106.267 127.699 106.275 127.697 106.284 127.695C106.301 127.691 106.317 127.687 106.334 127.683C106.34 127.682 106.347 127.68 106.353 127.679C106.388 127.671 106.422 127.664 106.453 127.656C106.455 127.656 106.457 127.655 106.458 127.655V128.111L106.933 128.423L107.573 128.845L108.688 128.111V127.667C108.699 127.669 108.71 127.672 108.721 127.674C108.734 127.678 108.747 127.68 108.76 127.683C108.773 127.686 108.785 127.689 108.798 127.693C108.813 127.696 108.829 127.7 108.845 127.703C108.856 127.706 108.867 127.709 108.878 127.711C108.902 127.717 108.925 127.723 108.95 127.729C108.963 127.732 108.977 127.735 108.991 127.738C109.007 127.742 109.023 127.746 109.039 127.75C109.052 127.754 109.066 127.757 109.08 127.76C109.104 127.766 109.129 127.772 109.154 127.779C109.17 127.783 109.186 127.787 109.202 127.791C109.222 127.796 109.242 127.801 109.262 127.806C109.277 127.81 109.292 127.814 109.307 127.818C109.329 127.824 109.351 127.83 109.375 127.835C109.387 127.839 109.399 127.842 109.411 127.845C109.444 127.853 109.478 127.862 109.512 127.871C109.527 127.875 109.543 127.88 109.559 127.884C109.582 127.89 109.605 127.896 109.629 127.902C109.645 127.906 109.662 127.911 109.679 127.915C109.709 127.924 109.74 127.931 109.771 127.94C109.789 127.944 109.807 127.949 109.825 127.954C109.855 127.962 109.885 127.97 109.916 127.978C109.934 127.983 109.952 127.988 109.97 127.993C109.998 128.001 110.027 128.009 110.056 128.016C110.072 128.021 110.087 128.025 110.103 128.029C110.145 128.041 110.189 128.052 110.233 128.065C110.251 128.07 110.27 128.075 110.289 128.08C110.318 128.088 110.348 128.096 110.378 128.105C110.398 128.11 110.418 128.116 110.439 128.122C110.478 128.133 110.517 128.144 110.557 128.155C110.569 128.158 110.58 128.161 110.593 128.165C110.641 128.179 110.691 128.193 110.741 128.207C110.76 128.213 110.78 128.218 110.8 128.224C110.836 128.234 110.872 128.244 110.909 128.255C110.93 128.26 110.95 128.266 110.971 128.272C111.024 128.287 111.079 128.303 111.135 128.318C111.15 128.323 111.166 128.327 111.181 128.332C111.225 128.345 111.269 128.357 111.315 128.37C111.337 128.377 111.36 128.383 111.382 128.39C111.428 128.403 111.474 128.416 111.521 128.43C111.537 128.434 111.552 128.439 111.568 128.443C111.629 128.461 111.692 128.479 111.755 128.498C111.777 128.504 111.799 128.511 111.82 128.517C111.866 128.53 111.913 128.544 111.96 128.557C111.983 128.564 112.007 128.571 112.03 128.578C112.096 128.597 112.162 128.616 112.23 128.636C112.246 128.641 112.263 128.646 112.28 128.651C112.334 128.667 112.389 128.683 112.445 128.7C112.472 128.708 112.499 128.716 112.527 128.724C112.58 128.741 112.635 128.757 112.689 128.773C112.71 128.779 112.73 128.785 112.751 128.791C112.826 128.814 112.902 128.836 112.979 128.86C113 128.866 113.021 128.872 113.041 128.878C113.102 128.896 113.163 128.915 113.226 128.934C113.25 128.941 113.274 128.949 113.299 128.956C113.372 128.977 113.447 129 113.522 129.023C113.542 129.03 113.563 129.035 113.583 129.042C113.656 129.064 113.729 129.086 113.803 129.108C113.83 129.117 113.857 129.125 113.885 129.133C113.951 129.153 114.018 129.174 114.085 129.194C114.109 129.202 114.133 129.209 114.158 129.216C114.245 129.243 114.335 129.27 114.425 129.298C114.451 129.306 114.477 129.314 114.503 129.322C114.571 129.343 114.639 129.363 114.708 129.384C114.742 129.395 114.776 129.406 114.811 129.417C114.892 129.442 114.974 129.467 115.057 129.492C115.072 129.497 115.086 129.501 115.099 129.505C115.197 129.536 115.297 129.567 115.398 129.597C115.428 129.606 115.457 129.616 115.488 129.625C115.565 129.649 115.643 129.673 115.722 129.698C115.751 129.707 115.781 129.717 115.811 129.726C115.914 129.758 116.019 129.791 116.126 129.823C116.147 129.83 116.169 129.837 116.191 129.843C116.279 129.871 116.369 129.899 116.46 129.927C116.494 129.938 116.529 129.949 116.565 129.96C116.655 129.988 116.746 130.017 116.838 130.046C116.862 130.053 116.885 130.06 116.909 130.067C117.021 130.103 117.135 130.138 117.25 130.174C117.284 130.185 117.319 130.196 117.353 130.206C117.444 130.235 117.536 130.264 117.629 130.293C117.661 130.304 117.693 130.314 117.726 130.324C117.849 130.363 117.973 130.402 118.099 130.442C118.108 130.445 118.118 130.448 118.128 130.451C118.243 130.487 118.359 130.524 118.476 130.561C118.516 130.574 118.556 130.586 118.596 130.599C118.694 130.631 118.793 130.662 118.894 130.694C118.927 130.704 118.96 130.715 118.993 130.725C119.122 130.767 119.253 130.808 119.385 130.85C119.42 130.861 119.455 130.873 119.49 130.884C119.596 130.917 119.703 130.951 119.81 130.986C119.849 130.998 119.888 131.011 119.927 131.023C120.067 131.068 120.208 131.114 120.351 131.159L120.37 131.165C121.252 131.448 121.764 131.84 122.061 132.187C122.072 132.199 122.082 132.211 122.091 132.223C122.118 132.255 122.142 132.286 122.165 132.318C122.264 132.452 122.331 132.576 122.376 132.679C122.382 132.691 122.387 132.704 122.392 132.717C122.4 132.738 122.408 132.759 122.416 132.778C122.454 132.886 122.466 132.958 122.468 132.973L122.971 138.256L123.174 140.387H122.758V141.892H124.773V140.387L124.774 140.381Z" fill="#46474A"/>
<path d="M31.9702 128.869V129.355H32.2266V129.648V129.984H32.9806V130.508V131.11H33.3913V131.571V132.358V141.339H33.7853H34.7443H34.8645H35.8235H36.1147H40.6872H40.9784H41.9374H42.0576H42.7254H43.0166H43.2049V137.016H53.0359V141.339H53.2069H53.5154H54.1666H54.2861H55.2451H55.5877H60.1609H60.4521H61.4111H61.5306H62.4896H62.8496V132.358V131.571V131.11H63.2602V130.508V129.984H64.0142V129.648V129.355H64.2714V128.869H31.9702Z" fill="#CE3C3C" fill-opacity="0.92"/>
<path d="M37.6886 141.462C37.5553 139.001 35.2737 137.046 32.4721 137.046C29.6705 137.046 27.3889 139.001 27.2585 141.462H37.6878H37.6886Z" fill="#D8DFEA"/>
<path d="M32.4722 141.462H37.6886C37.5554 139.005 35.2738 137.046 32.4722 137.046V141.462Z" fill="#46474A"/>
<path d="M34.9855 135.668C34.7269 132.192 30.2746 133.132 30.2015 133.007C30.1305 132.883 33.9049 132.028 33.8426 131.981C30.1558 129.142 28.8412 132.708 28.805 132.361C28.5805 130.311 25.9179 130.086 25.9179 130.086C25.9179 130.086 28.0343 132.568 27.3564 132.212C23.5379 130.21 21.8097 133.727 22.1863 133.588C23.6306 133.059 27.326 133.75 27.0964 133.787C23.7515 134.338 23.422 137.846 23.422 137.846C26.0794 137.376 27.6063 135.965 28.34 135.055C28.1191 136.715 27.804 139.358 27.6418 141.977L28.9977 142.242L29.0643 135.838C29.0745 135.898 29.0846 135.96 29.0955 136.024C29.4946 138.289 31.8044 139.886 31.8992 139.699C33.6666 136.056 30.0675 134.537 30.1667 134.531C31.3031 134.47 34.9877 135.716 34.9862 135.668H34.9855Z" fill="#D8DFEA"/>
<path d="M192.973 141.536C192.757 137.522 189.034 134.332 184.463 134.332C179.892 134.332 176.169 137.522 175.957 141.536H192.973Z" fill="#46474A"/>
<path d="M184.463 141.536H192.973C192.757 137.528 189.034 134.332 184.463 134.332V141.536Z" fill="#276034"/>
<path d="M323.077 141.508C322.929 138.76 320.381 136.577 317.252 136.577C314.123 136.577 311.575 138.76 311.43 141.508H323.077Z" fill="#46474A"/>
<path d="M317.253 141.508H323.078C322.93 138.764 320.382 136.577 317.253 136.577V141.508Z" fill="#276034"/>
<path d="M223.557 141.707C223.409 138.959 220.861 136.776 217.732 136.776C214.603 136.776 212.055 138.96 211.91 141.707H223.557Z" fill="#D8DFEA"/>
<path d="M217.732 141.707H223.557C223.409 138.964 220.861 136.776 217.732 136.776V141.707Z" fill="#D8DFEA"/>
<path d="M69.9354 141.493C69.8232 139.419 67.8994 137.771 65.5382 137.771C63.1769 137.771 61.2524 139.419 61.1431 141.493H69.9354Z" fill="#D8DFEA"/>
<path d="M65.5383 141.493H69.9356C69.8233 139.422 67.8996 137.771 65.5383 137.771V141.493Z" fill="#D8DFEA"/>
<path d="M177.285 138.901C176.485 138.901 175.761 139.175 175.227 139.634C174.695 139.175 173.975 138.901 173.174 138.901C172.372 138.901 171.671 139.169 171.143 139.617C170.612 139.169 169.901 138.901 169.115 138.901C167.525 138.901 166.233 140.009 166.154 141.402H180.247C180.17 140.009 178.874 138.901 177.286 138.901H177.285Z" fill="#D8DFEA"/>
<path d="M123.9 139.855C123.421 139.855 122.988 140.019 122.668 140.294C122.349 140.019 121.919 139.855 121.438 139.855C120.957 139.855 120.538 140.016 120.222 140.283C119.904 140.016 119.479 139.855 119.008 139.855C118.055 139.855 117.282 140.518 117.235 141.353H125.673C125.627 140.518 124.851 139.855 123.9 139.855H123.9Z" fill="#D8DFEA"/>
<path d="M55.773 139.841C55.2935 139.841 54.8603 140.005 54.5402 140.28C54.2215 140.005 53.7913 139.841 53.3103 139.841C52.8294 139.841 52.4107 140.002 52.0942 140.27C51.7762 140.002 51.3511 139.841 50.8803 139.841C49.9278 139.841 49.1543 140.505 49.1072 141.339H57.5453C57.4997 140.505 56.7233 139.841 55.7722 139.841H55.773Z" fill="#D8DFEA"/>
<path d="M14.9707 139.841C14.4912 139.841 14.0581 140.005 13.738 140.28C13.4193 140.005 12.989 139.841 12.5081 139.841C12.0271 139.841 11.6085 140.002 11.292 140.27C10.974 140.002 10.5488 139.841 10.078 139.841C9.12557 139.841 8.35201 140.505 8.30493 141.339H16.7431C16.6975 140.505 15.921 139.841 14.97 139.841H14.9707Z" fill="#D8DFEA"/>
<path d="M325.523 139.834C325.044 139.834 324.611 139.998 324.291 140.273C323.972 139.998 323.542 139.834 323.061 139.834C322.58 139.834 322.161 139.995 321.845 140.263C321.527 139.995 321.102 139.834 320.631 139.834C319.678 139.834 318.905 140.498 318.858 141.332H327.296C327.25 140.498 326.474 139.834 325.523 139.834H325.523Z" fill="#5AA5FF"/>
<path d="M378.406 139.834C377.927 139.834 377.494 139.998 377.174 140.273C376.855 139.998 376.425 139.834 375.944 139.834C375.463 139.834 375.044 139.995 374.728 140.263C374.41 139.995 373.985 139.834 373.514 139.834C372.561 139.834 371.788 140.498 371.741 141.332H380.179C380.133 140.498 379.357 139.834 378.406 139.834H378.406Z" fill="#D8DFEA"/>
<path d="M362.991 139.042C362.302 139.042 361.679 139.279 361.22 139.673C360.762 139.279 360.144 139.042 359.453 139.042C358.762 139.042 358.16 139.273 357.706 139.658C357.249 139.273 356.637 139.042 355.961 139.042C354.592 139.042 353.481 139.996 353.414 141.195H365.538C365.473 139.996 364.357 139.042 362.991 139.042Z" fill="#D8DFEA"/>
<path d="M88.9782 139.452C88.3835 139.452 87.8461 139.656 87.4499 139.997C87.0544 139.656 86.5206 139.452 85.9253 139.452C85.3299 139.452 84.8091 139.652 84.4172 139.983C84.0232 139.651 83.4952 139.452 82.9121 139.452C81.7308 139.452 80.7718 140.275 80.7139 141.31H91.1772C91.1207 140.275 90.1574 139.452 88.9789 139.452H88.9782Z" fill="#D8DFEA"/>
<path d="M199.731 117.381C198.619 117.94 202.003 114.154 202.003 114.154C202.003 114.154 197.569 114.6 197.318 117.664C197.279 118.182 194.866 112.922 188.874 117.316C188.775 117.39 195.135 118.499 195.025 118.69C194.913 118.876 187.411 117.664 187.193 122.854C187.188 122.929 193.27 120.914 195.174 120.957C195.337 120.964 189.418 123.378 192.587 128.739C192.747 128.994 196.078 126.823 196.923 123.747L196.32 141.519L199.406 141.406C198.665 133.873 198.202 125.551 197.997 121.383C199.161 122.681 201.846 124.983 206.644 125.613C206.644 125.613 205.881 120.396 200.257 119.72C199.872 119.672 206.007 118.487 208.45 119.213C209.087 119.405 205.986 114.233 199.73 117.381H199.731Z" fill="#2A813E"/>
<path d="M196.097 139.545C195.503 139.545 194.965 139.748 194.569 140.09C194.174 139.749 193.64 139.545 193.044 139.545C192.449 139.545 191.928 139.745 191.536 140.076C191.142 139.744 190.614 139.545 190.031 139.545C188.85 139.545 187.891 140.368 187.833 141.403H198.296C198.24 140.368 197.277 139.545 196.098 139.545H196.097Z" fill="#D8DFEA"/>
<path d="M244.986 139.285C244.306 139.285 243.69 139.525 243.239 139.913C242.787 139.525 242.172 139.285 241.495 139.285C240.817 139.285 240.218 139.516 239.771 139.896C239.32 139.516 238.715 139.285 238.047 139.285C236.698 139.285 235.599 140.227 235.536 141.415H247.497C247.432 140.227 246.334 139.285 244.986 139.285Z" fill="#46474A"/>
<path d="M250.829 140.35C250.496 140.35 250.194 140.464 249.973 140.655C249.751 140.464 249.452 140.35 249.118 140.35C248.784 140.35 248.493 140.462 248.273 140.647C248.052 140.461 247.757 140.35 247.43 140.35C246.768 140.35 246.23 140.811 246.198 141.391H252.06C252.028 140.811 251.489 140.35 250.828 140.35H250.829Z" fill="#5AA5FF"/>
<path d="M254.155 125.123C254.155 125.123 254.623 134.488 255.309 141.458L253.275 141.533L253.641 125.14L254.155 125.123H254.155Z" fill="#46474A"/>
<path d="M259.934 129.684C259.934 129.684 259.431 126.247 255.726 125.802C255.472 125.77 259.514 124.989 261.124 125.468C261.543 125.594 259.501 122.187 255.379 124.261C254.647 124.629 256.876 122.135 256.876 122.135C256.876 122.135 253.955 122.428 253.79 124.448C253.764 124.789 252.174 121.324 248.226 124.219C248.16 124.268 252.351 124.998 252.278 125.124C252.204 125.246 247.262 124.448 247.118 127.867C247.115 127.916 251.122 126.588 252.377 126.617C252.485 126.621 248.584 128.212 250.672 131.744C250.784 131.923 253.265 130.291 253.615 128.054C253.777 126.994 253.772 126.3 253.772 126.3C253.772 126.3 255.457 129.098 259.933 129.685L259.934 129.684Z" fill="#46474A"/>
<path d="M252.937 133.644C252.598 129.078 246.749 130.312 246.654 130.148C246.56 129.986 251.518 128.862 251.436 128.8C246.594 125.072 244.868 129.755 244.82 129.299C244.524 126.606 241.028 126.312 241.028 126.312C241.028 126.312 243.807 129.571 242.917 129.104C237.901 126.474 235.633 131.094 236.127 130.911C238.024 130.216 242.877 131.124 242.575 131.173C238.182 131.896 237.749 136.504 237.749 136.504C241.24 135.886 243.245 134.033 244.209 132.838C243.918 135.019 243.505 138.49 243.292 141.93L245.073 142.277L245.16 133.866C245.173 133.946 245.186 134.027 245.201 134.111C245.725 137.085 248.759 139.183 248.883 138.937C251.205 134.152 246.478 132.158 246.608 132.15C248.1 132.07 252.939 133.705 252.937 133.644Z" fill="#2A813E"/>
<path d="M388 141.276H0V144H388V141.276Z" fill="#CE3C3C" fill-opacity="0.92"/>
</g>
<defs>
<clipPath id="clip0_23_234">
<rect width="388" height="144" fill="white"/>
</clipPath>
</defs>
</svg>
