<svg width="32" height="32" viewBox="0 0 32 32" fill="none" xmlns="http://www.w3.org/2000/svg">
<path d="M4 9H18.1719C18.3788 9.5847 18.7618 10.0909 19.2683 10.4489C19.7748 10.8069 20.3798 10.9991 21 10.9991C21.6202 10.9991 22.2252 10.8069 22.7317 10.4489C23.2382 10.0909 23.6212 9.5847 23.8281 9H28C28.2652 9 28.5196 8.89464 28.7071 8.70711C28.8946 8.51957 29 8.26522 29 8C29 7.73478 28.8946 7.48043 28.7071 7.29289C28.5196 7.10536 28.2652 7 28 7H23.8281C23.6212 6.41531 23.2382 5.90912 22.7317 5.5511C22.2252 5.19309 21.6202 5.00085 21 5.00085C20.3798 5.00085 19.7748 5.19309 19.2683 5.5511C18.7618 5.90912 18.3788 6.41531 18.1719 7H4C3.73478 7 3.48043 7.10536 3.29289 7.29289C3.10536 7.48043 3 7.73478 3 8C3 8.26522 3.10536 8.51957 3.29289 8.70711C3.48043 8.89464 3.73478 9 4 9ZM28 23H23.8281C23.6212 22.4153 23.2382 21.9091 22.7317 21.5511C22.2252 21.1931 21.6202 21.0009 21 21.0009C20.3798 21.0009 19.7748 21.1931 19.2683 21.5511C18.7618 21.9091 18.3788 22.4153 18.1719 23H4C3.73478 23 3.48043 23.1054 3.29289 23.2929C3.10536 23.4804 3 23.7348 3 24C3 24.2652 3.10536 24.5196 3.29289 24.7071C3.48043 24.8946 3.73478 25 4 25H18.1719C18.3788 25.5847 18.7618 26.0909 19.2683 26.4489C19.7748 26.8069 20.3798 26.9991 21 26.9991C21.6202 26.9991 22.2252 26.8069 22.7317 26.4489C23.2382 26.0909 23.6212 25.5847 23.8281 25H28C28.2652 25 28.5196 24.8946 28.7071 24.7071C28.8946 24.5196 29 24.2652 29 24C29 23.7348 28.8946 23.4804 28.7071 23.2929C28.5196 23.1054 28.2652 23 28 23ZM28 15H13.8281C13.6212 14.4153 13.2381 13.9091 12.7317 13.5511C12.2252 13.1931 11.6202 13.0009 11 13.0009C10.3798 13.0009 9.77479 13.1931 9.26832 13.5511C8.76185 13.9091 8.37879 14.4153 8.17188 15H4C3.73478 15 3.48043 15.1054 3.29289 15.2929C3.10536 15.4804 3 15.7348 3 16C3 16.2652 3.10536 16.5196 3.29289 16.7071C3.48043 16.8946 3.73478 17 4 17H8.17188C8.37879 17.5847 8.76185 18.0909 9.26832 18.4489C9.77479 18.8069 10.3798 18.9991 11 18.9991C11.6202 18.9991 12.2252 18.8069 12.7317 18.4489C13.2381 18.0909 13.6212 17.5847 13.8281 17H28C28.2652 17 28.5196 16.8946 28.7071 16.7071C28.8946 16.5196 29 16.2652 29 16C29 15.7348 28.8946 15.4804 28.7071 15.2929C28.5196 15.1054 28.2652 15 28 15Z" fill="white"/>
</svg>
