<svg width="24" height="24" viewBox="0 0 24 24" fill="none" xmlns="http://www.w3.org/2000/svg">
<path d="M12.4333 0.160044C12.3126 0.0567575 12.1589 0 12 0C11.8411 0 11.6874 0.0567575 11.5667 0.160044L2 8.36003V18C2 18.5304 2.21071 19.0391 2.58579 19.4142C2.96086 19.7893 3.46957 20 4 20H9.33333C9.51014 20 9.67971 19.9298 9.80474 19.8047C9.92976 19.6797 10 19.5101 10 19.3333V15.3333C10 14.8029 10.2107 14.2942 10.5858 13.9191C10.9609 13.5441 11.4696 13.3333 12 13.3333C12.5304 13.3333 13.0391 13.5441 13.4142 13.9191C13.7893 14.2942 14 14.8029 14 15.3333V19.3333C14 19.5101 14.0702 19.6797 14.1953 19.8047C14.3203 19.9298 14.4899 20 14.6667 20H20C20.5304 20 21.0391 19.7893 21.4142 19.4142C21.7893 19.0391 22 18.5304 22 18V8.36003L12.4333 0.160044Z" fill="#2F203B"/>
</svg>